<svg height="395.94667pt" viewBox="0 0 395.94667 395.94667" width="395.94667pt" xmlns="http://www.w3.org/2000/svg"><path d="m389.121094 197.972656c0 105.566406-85.582032 191.148438-191.148438 191.148438s-191.144531-85.582032-191.144531-191.148438 85.578125-191.144531 191.144531-191.144531 191.148438 85.578125 191.148438 191.144531zm0 0" fill="#288eea"/><path d="m197.972656 395.945312c-109.160156 0-197.972656-88.808593-197.972656-197.972656 0-109.164062 88.8125-197.972656 197.972656-197.972656s197.972656 88.808594 197.972656 197.972656c0 109.164063-88.8125 197.972656-197.972656 197.972656zm0-382.292968c-101.632812 0-184.320312 82.6875-184.320312 184.320312 0 101.632813 82.6875 184.320313 184.320312 184.320313 101.632813 0 184.320313-82.6875 184.320313-184.320313 0-101.632812-82.6875-184.320312-184.320313-184.320312zm0 0"/><path d="m347.75 197.972656c0 82.71875-67.058594 149.777344-149.777344 149.777344s-149.777344-67.058594-149.777344-149.777344 67.058594-149.777344 149.777344-149.777344 149.777344 67.058594 149.777344 149.777344zm0 0" fill="#fff"/><path d="m197.972656 354.578125c-86.347656 0-156.601562-70.253906-156.601562-156.605469 0-86.351562 70.253906-156.601562 156.601562-156.601562s156.601563 70.25 156.601563 156.601562c0 86.351563-70.253907 156.605469-156.601563 156.605469zm0-299.554687c-78.820312 0-142.945312 64.125-142.945312 142.949218 0 78.824219 64.125 142.949219 142.945312 142.949219 78.820313 0 142.949219-64.125 142.949219-142.949219 0-78.824218-64.128906-142.949218-142.949219-142.949218zm0 0"/><path d="m191.140625 279.894531c-1.222656 0-2.453125-.328125-3.574219-1.015625-3.207031-1.976562-4.207031-6.179687-2.234375-9.390625l54.613281-88.746093c1.964844-3.214844 6.160157-4.214844 9.394532-2.238282 3.207031 1.976563 4.207031 6.179688 2.234375 9.390625l-54.613281 88.746094c-1.289063 2.097656-3.527344 3.253906-5.820313 3.253906zm0 0"/><path d="m123.984375 127.273438c18.632813-19.492188 44.894531-31.636719 73.988281-31.636719 26.929688 0 51.429688 10.402343 69.703125 27.410156" fill="#fff"/><path d="m123.984375 134.101562c-1.691406 0-3.390625-.628906-4.71875-1.894531-2.722656-2.601562-2.820313-6.925781-.214844-9.648437 20.800781-21.765625 48.828125-33.75 78.921875-33.75 27.6875 0 54.085938 10.382812 74.351563 29.238281 2.761719 2.566406 2.914062 6.886719.347656 9.644531-2.566406 2.769532-6.886719 2.914063-9.652344.347656-17.71875-16.492187-40.828125-25.574218-65.046875-25.574218-26.328125 0-50.851562 10.484375-69.054687 29.523437-1.335938 1.40625-3.132813 2.113281-4.933594 2.113281zm0 0"/><path d="m232.105469 269.652344c0 20.738281-16.808594 37.546875-37.546875 37.546875-20.734375 0-37.546875-16.808594-37.546875-37.546875 0-20.734375 16.8125-37.546875 37.546875-37.546875 20.738281 0 37.546875 16.8125 37.546875 37.546875zm0 0" fill="#fcad3a"/><path d="m194.558594 314.027344c-24.464844 0-44.371094-19.90625-44.371094-44.375 0-24.464844 19.90625-44.371094 44.371094-44.371094 24.46875 0 44.375 19.90625 44.375 44.371094 0 24.46875-19.90625 44.375-44.375 44.375zm0-75.09375c-16.9375 0-30.71875 13.78125-30.71875 30.71875 0 16.941406 13.78125 30.722656 30.71875 30.722656 16.941406 0 30.722656-13.78125 30.722656-30.722656 0-16.9375-13.78125-30.71875-30.722656-30.71875zm0 0"/></svg>